<?xml version="1.0" standalone="no"?>
<!DOCTYPE svg PUBLIC "-//W3C//DTD SVG 20010904//EN"
 "http://www.w3.org/TR/2001/REC-SVG-20010904/DTD/svg10.dtd">
<svg version="1.0" xmlns="http://www.w3.org/2000/svg"
 width="500.000000pt" height="500.000000pt" viewBox="0 0 500.000000 500.000000"
 preserveAspectRatio="xMidYMid meet">
<metadata>
Created by potrace 1.14, written by Peter Selinger 2001-2017
</metadata>
<g transform="translate(0.000000,500.000000) scale(0.100000,-0.100000)"
fill="#000000" stroke="none">
<path d="M2377 4734 c-1 -1 -50 -4 -108 -8 -113 -6 -228 -24 -374 -56 -49 -11
-94 -21 -100 -22 -53 -6 -306 -107 -413 -165 -48 -26 -96 -51 -107 -57 -11 -6
-34 -21 -52 -33 -17 -13 -34 -23 -38 -23 -4 0 -55 -37 -113 -82 -185 -143
-404 -380 -502 -543 -13 -22 -29 -43 -34 -47 -6 -4 -7 -8 -2 -8 5 0 2 -8 -6
-17 -22 -25 -111 -203 -147 -295 -30 -75 -96 -292 -106 -347 -3 -14 -7 -37
-10 -51 -6 -28 -21 -122 -30 -185 -11 -83 -15 -164 -15 -290 0 -155 2 -183 35
-410 27 -193 154 -535 259 -699 20 -31 36 -61 36 -66 0 -6 4 -10 8 -10 5 0 14
-12 21 -26 11 -26 107 -154 155 -208 216 -243 422 -405 686 -537 143 -71 279
-121 445 -163 108 -27 130 -28 150 -6 10 11 16 22 14 23 -2 2 -35 9 -74 16
-38 7 -83 17 -100 22 -188 55 -335 109 -362 131 -7 6 -13 8 -13 5 0 -3 -31 12
-70 34 -38 21 -74 39 -80 39 -5 0 -10 5 -10 10 0 6 -5 10 -10 10 -14 0 -148
90 -230 154 -120 94 -212 184 -318 311 -123 147 -256 360 -315 505 -10 25 -23
54 -28 65 -51 110 -116 373 -136 545 -8 75 -8 450 1 528 8 71 56 309 79 392
26 94 104 286 156 385 76 146 158 266 271 400 70 82 262 262 309 289 9 5 34
24 56 41 75 59 244 155 385 217 133 59 355 125 480 143 14 2 41 6 60 10 33 6
62 9 195 21 115 10 332 4 437 -11 21 -3 50 -8 65 -10 78 -11 100 -15 123 -21
14 -3 45 -10 69 -15 166 -34 461 -160 631 -269 517 -332 882 -898 955 -1484
l7 -49 23 24 c24 24 24 24 10 104 -20 111 -21 116 -45 203 -28 103 -74 229
-121 330 -22 46 -39 88 -39 93 0 5 -3 9 -8 9 -4 0 -13 14 -21 32 -22 48 -147
235 -211 313 -136 166 -315 329 -491 447 -88 59 -359 204 -359 193 0 -3 -12 1
-27 9 -25 12 -165 62 -203 71 -42 11 -301 64 -340 70 -25 4 -97 8 -160 11 -63
2 -115 4 -115 5 0 1 -76 5 -78 3z"/>
<path d="M1539 3361 c-17 -42 -37 -89 -44 -106 -7 -16 -45 -109 -83 -205 -75
-188 -86 -213 -112 -275 -9 -22 -27 -67 -40 -100 -13 -33 -34 -84 -46 -113
-13 -29 -24 -55 -24 -58 0 -3 -7 -20 -15 -37 -8 -18 -28 -68 -45 -112 -18 -44
-38 -93 -45 -110 -7 -16 -32 -77 -56 -135 -23 -58 -49 -122 -57 -143 -12 -29
-13 -40 -4 -46 10 -6 327 -8 353 -2 3 0 16 31 28 69 13 37 27 78 33 92 20 48
27 65 38 102 l11 37 286 -2 286 -2 27 -75 c15 -41 30 -82 33 -90 3 -8 13 -37
23 -65 9 -27 21 -54 26 -60 8 -9 343 -17 360 -8 8 4 3 19 -106 288 -43 105
-78 195 -79 200 -1 6 -4 12 -7 15 -3 3 -16 32 -28 65 -13 33 -29 74 -37 90 -8
17 -42 100 -75 185 -34 85 -68 169 -75 185 -7 17 -34 82 -59 145 -26 63 -51
124 -55 135 -11 25 -44 107 -67 163 -10 23 -20 43 -23 44 -3 0 -70 2 -148 3
l-142 2 -32 -76z m211 -438 c18 -49 56 -155 85 -238 29 -82 56 -158 60 -167 7
-17 -6 -18 -180 -18 -166 0 -186 2 -175 15 7 8 10 15 7 15 -3 0 14 55 38 123
50 141 115 326 121 345 2 6 5 12 8 12 2 0 19 -39 36 -87z"/>
<path d="M2373 3433 c-11 -4 10 -64 63 -180 8 -17 14 -35 14 -40 0 -6 6 -23
14 -39 14 -28 57 -134 301 -739 64 -159 123 -303 130 -320 8 -16 28 -66 45
-110 18 -44 36 -82 41 -85 7 -5 249 -6 285 -1 7 0 33 54 59 119 26 64 53 131
60 147 7 17 41 100 75 185 34 85 67 166 73 180 5 14 11 30 13 35 1 6 10 28 20
50 10 22 18 42 19 45 0 3 10 26 22 52 12 25 24 57 28 70 4 12 13 37 20 53 20
46 79 189 81 195 0 3 6 19 13 35 7 17 26 66 44 110 18 44 36 83 40 86 5 3 8 9
8 13 -1 9 2 22 14 51 36 90 36 85 12 89 -12 3 -96 4 -186 3 l-163 -2 -23 -60
c-39 -101 -146 -389 -150 -405 -3 -8 -30 -82 -61 -165 -60 -160 -123 -334
-128 -350 -1 -5 -8 -27 -15 -49 -16 -46 -22 -40 -51 54 -11 36 -25 74 -29 85
-5 11 -48 128 -96 260 -217 596 -202 554 -204 568 0 4 -7 20 -15 35 l-15 29
-173 0 c-95 0 -178 -2 -185 -4z"/>
<path d="M4485 2610 c-128 -63 -85 -257 58 -265 49 -2 82 10 119 43 70 64 43
189 -49 228 -45 19 -81 17 -128 -6z m115 -55 c98 -51 36 -178 -71 -146 -81 24
-95 111 -24 149 28 16 61 15 95 -3z"/>
<path d="M4332 2165 c-14 -30 -20 -27 147 -80 62 -20 117 -33 121 -28 4 4 11
17 14 28 5 18 -1 23 -41 35 -27 7 -50 14 -53 15 -23 7 -86 25 -92 25 -4 1 -23
7 -42 15 -44 19 -41 19 -54 -10z"/>
<path d="M2555 2016 c-18 -18 -23 -31 -19 -52 8 -42 22 -54 63 -54 43 0 68 23
66 63 -4 60 -67 86 -110 43z"/>
<path d="M3406 2021 c-29 -33 -20 -95 17 -107 68 -23 124 44 82 100 -19 25
-79 29 -99 7z"/>
<path d="M4449 1795 l-31 -65 -37 20 c-67 34 -171 80 -181 80 -6 0 -10 -4 -10
-9 0 -5 -3 -16 -6 -25 -4 -11 25 -29 121 -75 70 -34 130 -61 134 -61 3 1 25
42 48 92 31 68 39 94 30 100 -26 17 -39 6 -68 -57z"/>
<path d="M4070 1562 c-108 -48 -122 -185 -26 -250 98 -67 214 -14 224 100 3
44 0 59 -20 87 -39 57 -124 87 -178 63z m86 -58 c37 -17 64 -58 64 -94 0 -12
-13 -34 -29 -49 -36 -34 -74 -31 -122 8 -51 43 -43 118 16 141 29 12 33 12 71
-6z"/>
<path d="M3747 1202 l-67 -67 103 -103 c103 -103 103 -103 122 -82 18 20 18
21 -18 58 -20 21 -37 41 -37 46 0 4 16 24 35 43 39 39 41 45 22 62 -11 8 -24
2 -57 -29 l-43 -40 -25 27 -25 27 29 26 c58 53 68 68 54 85 -7 8 -15 15 -19
15 -4 0 -37 -30 -74 -68z"/>
<path d="M3459 959 c-110 -79 -111 -80 -94 -103 14 -18 15 -18 50 9 35 26 37
26 51 9 14 -18 58 -81 79 -112 18 -27 48 -62 54 -62 3 0 14 7 25 15 17 13 15
19 -51 113 l-70 98 34 22 c35 23 41 43 20 60 -10 9 -34 -3 -98 -49z"/>
<path d="M3075 737 c-33 -16 -62 -31 -64 -33 -4 -3 7 -26 78 -175 35 -73 45
-86 62 -82 29 8 31 18 14 59 -20 48 -19 53 9 60 16 4 37 -3 65 -20 46 -29 60
-31 85 -13 17 12 14 16 -32 46 -48 30 -50 34 -41 59 16 42 3 84 -34 110 -41
27 -66 26 -142 -11z m123 -70 c3 -22 -4 -29 -37 -46 l-40 -21 -15 32 c-22 44
-20 52 17 70 39 20 70 5 75 -35z"/>
<path d="M2675 593 c-37 -20 -47 -31 -63 -66 -49 -112 47 -233 164 -207 46 11
81 45 98 95 42 121 -89 238 -199 178z m114 -56 c30 -25 42 -73 28 -113 -34
-103 -167 -53 -159 60 3 34 18 55 47 66 24 9 64 3 84 -13z"/>
<path d="M2275 533 c-78 -7 -87 -11 -81 -41 3 -15 8 -67 11 -117 9 -133 12
-145 38 -141 12 3 24 5 27 5 3 1 5 22 5 48 0 50 -1 49 57 52 43 2 80 41 84 87
3 48 -17 81 -61 100 -19 8 -36 13 -37 12 -2 -1 -21 -3 -43 -5z m77 -79 c17
-37 0 -58 -49 -62 l-41 -3 -4 41 c-2 23 -2 43 1 46 2 2 22 4 43 4 32 0 41 -5
50 -26z"/>
</g>
</svg>
