<?xml version="1.0" standalone="no"?>
<!DOCTYPE svg PUBLIC "-//W3C//DTD SVG 20010904//EN"
 "http://www.w3.org/TR/2001/REC-SVG-20010904/DTD/svg10.dtd">
<svg version="1.0" xmlns="http://www.w3.org/2000/svg"
 width="500.000000pt" height="500.000000pt" viewBox="0 0 500.000000 500.000000"
 preserveAspectRatio="xMidYMid meet">

<g transform="translate(0.000000,500.000000) scale(0.100000,-0.100000)"
fill="#000000" stroke="none">
<path d="M2500 4680 c0 -91 2 -100 19 -100 12 0 21 10 26 27 l6 27 21 -32 c13
-21 28 -32 44 -32 29 0 30 10 3 44 l-20 26 20 26 c45 57 9 114 -72 114 l-47 0
0 -100z m88 32 c3 -17 -2 -22 -17 -22 -16 0 -21 6 -21 26 0 33 33 30 38 -4z"/>
<path d="M2064 4716 c-45 -45 -47 -95 -5 -136 16 -16 40 -32 55 -36 58 -14
126 45 126 110 0 43 -58 96 -105 96 -29 0 -45 -8 -71 -34z m111 -36 c23 -25
13 -67 -20 -82 -52 -23 -100 46 -59 86 21 22 57 20 79 -4z"/>
<path d="M2896 4733 c-10 -25 -7 -33 14 -33 29 0 32 -17 17 -93 -15 -70 -14
-77 14 -77 19 0 21 5 40 93 12 56 13 58 39 52 22 -5 28 -2 33 15 6 24 5 25
-85 44 -58 11 -68 11 -72 -1z"/>
<path d="M1670 4623 c-19 -8 -36 -16 -38 -18 -7 -6 64 -178 76 -183 24 -9 35
14 24 48 -10 28 -9 32 13 40 48 18 58 68 20 105 -27 28 -45 30 -95 8z m67 -67
c-4 -9 -13 -16 -21 -16 -18 0 -29 42 -13 52 16 10 41 -17 34 -36z"/>
<path d="M3276 4540 c-20 -50 -34 -95 -31 -101 14 -21 41 -8 53 25 12 33 14
34 43 23 24 -10 32 -9 39 3 14 22 13 25 -21 37 -33 13 -35 40 -3 35 47 -8 59
-6 62 9 3 15 -6 20 -94 56 -7 2 -27 -34 -48 -87z"/>
<path d="M3629 4391 c-22 -23 -29 -39 -29 -70 0 -112 147 -145 195 -44 48 100
-87 193 -166 114z m116 -45 c33 -49 -22 -103 -72 -70 -25 16 -31 62 -11 82 21
21 66 14 83 -12z"/>
<path d="M1150 4182 c-22 -19 -30 -31 -22 -36 14 -8 84 42 76 55 -8 14 -17 11
-54 -19z"/>
<path d="M3985 4090 l-70 -70 43 -42 c37 -38 43 -41 57 -27 14 14 13 18 -10
39 l-25 24 56 57 c49 49 55 60 44 73 -7 9 -15 16 -19 16 -4 0 -38 -32 -76 -70z"/>
<path d="M4255 3824 c-33 -25 -69 -52 -79 -59 -16 -12 -17 -17 -6 -30 17 -20
22 -18 108 45 64 46 70 54 59 71 -6 10 -14 19 -17 19 -3 0 -32 -21 -65 -46z"/>
<path d="M599 3751 c-77 -78 7 -208 107 -166 104 43 76 195 -36 195 -33 0 -48
-6 -71 -29z m109 -33 c21 -21 14 -66 -13 -84 -23 -15 -27 -15 -50 0 -17 11
-25 26 -25 44 0 35 16 52 50 52 14 0 31 -5 38 -12z"/>
<path d="M4385 3536 c-68 -69 -27 -176 68 -176 98 0 142 109 70 176 -36 34
-104 34 -138 0z m117 -52 c8 -18 8 -31 0 -50 -10 -21 -18 -25 -49 -22 -42 4
-59 24 -49 62 12 48 78 55 98 10z"/>
<path d="M394 3378 c-7 -25 -3 -28 99 -69 65 -27 80 -30 88 -18 17 28 11 32
-133 90 -47 18 -47 18 -54 -3z"/>
<path d="M445 3020 c-8 -35 -6 -35 -91 -14 -56 14 -67 15 -75 3 -5 -8 -7 -18
-6 -24 3 -7 162 -54 188 -55 7 0 29 79 29 104 0 9 -8 16 -19 16 -13 0 -21 -9
-26 -30z"/>
<path d="M4610 2793 c0 -42 12 -69 27 -60 13 8 1 89 -14 95 -9 2 -13 -8 -13
-35z"/>
<path d="M273 2680 c-68 -41 -72 -121 -9 -172 50 -41 146 -4 161 62 9 42 -21
99 -61 116 -44 18 -53 18 -91 -6z m87 -50 c24 -24 25 -38 4 -68 -17 -24 -62
-30 -82 -10 -20 20 -14 65 10 82 30 21 44 20 68 -4z"/>
<path d="M318 2193 c-4 -48 -24 -53 -32 -8 -5 27 -12 35 -28 35 -19 0 -20 -4
-14 -57 4 -31 9 -59 11 -61 2 -2 46 2 97 10 83 12 93 16 96 36 3 20 -1 22 -38
22 -37 0 -41 3 -46 30 -10 46 -42 41 -46 -7z"/>
<path d="M4555 2192 c-3 -3 -5 -13 -5 -23 0 -18 19 -29 49 -29 14 0 17 -6 14
-24 -16 -84 100 -111 127 -30 23 68 15 76 -87 95 -51 9 -95 14 -98 11z m154
-78 c3 -2 -2 -11 -10 -20 -20 -19 -49 -8 -49 18 0 17 4 19 27 13 16 -4 30 -9
32 -11z"/>
<path d="M338 1842 c-23 -4 -23 -4 6 -88 19 -56 27 -68 42 -66 27 5 29 9 16
36 -11 24 -9 25 56 47 79 25 86 31 78 57 -7 20 -7 20 -78 -4 -39 -13 -74 -24
-78 -24 -3 0 -10 10 -16 23 -6 15 -15 22 -26 19z"/>
<path d="M4474 1791 c-42 -25 -57 -70 -41 -118 36 -108 197 -83 197 31 -1 86
-82 132 -156 87z m94 -43 c29 -29 3 -98 -37 -98 -45 0 -71 59 -41 95 15 18 61
20 78 3z"/>
<path d="M627 1516 c-14 -31 -20 -35 -44 -30 -34 7 -83 -27 -83 -57 0 -21 36
-99 46 -99 13 0 174 92 174 100 0 19 -29 31 -49 20 -25 -13 -26 -8 -6 30 13
26 13 30 -3 50 l-18 22 -17 -36z m-33 -91 c7 -19 -32 -41 -46 -27 -15 15 -2
42 21 42 10 0 21 -7 25 -15z"/>
<path d="M4271 1411 c-8 -15 -6 -22 12 -34 22 -16 22 -16 -10 -16 -21 -1 -37
-8 -47 -23 -22 -32 -21 -34 22 -30 33 3 38 0 52 -30 17 -38 61 -59 88 -42 18
11 62 71 62 84 0 7 -155 110 -165 110 -2 0 -9 -9 -14 -19z m119 -116 c0 -9
-10 -15 -25 -15 -18 0 -25 5 -25 18 0 10 3 22 6 25 10 10 44 -12 44 -28z"/>
<path d="M782 1155 c-81 -68 -17 -200 88 -179 44 9 80 56 80 106 0 86 -100
130 -168 73z m106 -37 c21 -21 14 -66 -12 -83 -50 -33 -104 20 -72 70 18 27
63 34 84 13z"/>
<path d="M4012 1078 c-10 -10 0 -25 45 -70 56 -57 57 -57 38 -78 -16 -18 -17
-23 -5 -30 22 -14 21 -14 80 45 52 53 53 55 35 69 -18 13 -22 12 -41 -5 -20
-19 -20 -18 -69 31 -52 52 -63 58 -83 38z"/>
<path d="M3762 848 c-8 -8 -6 -18 10 -41 l22 -30 -27 -22 c-23 -20 -24 -25
-12 -41 13 -18 14 -18 34 0 13 12 27 16 38 11 16 -6 15 -9 -10 -31 -28 -24
-31 -54 -6 -54 15 0 89 53 89 64 0 15 -104 156 -115 156 -6 0 -16 -5 -23 -12z"/>
<path d="M1206 825 c-16 -24 -18 -25 -39 -10 -30 21 -63 19 -87 -7 -30 -33
-25 -65 17 -104 20 -19 40 -34 44 -34 3 0 34 35 67 79 46 59 58 81 49 90 -17
17 -33 13 -51 -14z m-58 -44 c12 -7 12 -12 1 -30 -8 -11 -17 -21 -22 -21 -12
0 -20 28 -13 45 6 17 15 19 34 6z"/>
<path d="M3427 644 c-34 -17 -47 -30 -45 -42 4 -17 15 -19 55 -7 19 6 26 -1
55 -59 32 -66 41 -73 66 -57 11 6 4 28 -32 100 -26 50 -47 91 -49 91 -1 -1
-24 -12 -50 -26z"/>
<path d="M3106 512 c-8 -13 54 -192 67 -192 33 1 34 16 5 108 -23 74 -32 92
-48 92 -10 0 -21 -3 -24 -8z"/>
<path d="M1740 490 c0 -10 17 -19 68 -34 36 -12 27 20 -9 33 -40 14 -59 14
-59 1z"/>
<path d="M2720 427 c-49 -38 -61 -87 -34 -138 35 -68 135 -71 175 -5 31 50 22
101 -25 138 -24 20 -94 23 -116 5z m100 -58 c15 -27 5 -66 -19 -79 -47 -24
-97 31 -71 79 15 29 75 29 90 0z"/>
</g>
</svg>
